<svg width="375" height="375" viewBox="0 0 375 375" fill="none" xmlns="http://www.w3.org/2000/svg">
  <path
    d="M247 192C261.912 192 274 181.926 274 169.5C274 157.074 261.912 147 247 147C232.088 147 220 157.074 220 169.5C220 181.926 232.088 192 247 192Z"
    fill="#359C47" />
  <path
    d="M247.088 201.617C237.517 201.617 228.734 198.784 221.921 194.047V267.194C221.921 278.665 233.182 287.954 247.088 287.954C260.994 287.954 272.255 278.665 272.255 267.194V194.093C265.386 198.784 256.603 201.617 247.088 201.617Z"
    fill="#359C47" />
  <path
    d="M158.5 222C173.688 222 186 212.15 186 200C186 187.85 173.688 178 158.5 178C143.312 178 131 187.85 131 200C131 212.15 143.312 222 158.5 222Z"
    fill="#1C3F72" />
  <path
    d="M121.861 200.295C121.861 193.19 124.676 186.595 129.406 181.254C129.18 181.254 128.899 181.254 128.674 181.254H107.167C93.2602 181.254 82 190.543 82 201.967C82 213.439 93.2602 222.681 107.167 222.681H128.73C130.025 222.681 131.32 222.588 132.559 222.402C125.915 216.643 121.861 208.841 121.861 200.295Z"
    fill="#1C3F72" />
  <path
    d="M247.976 85H183.793H158.626C144.72 85 133.459 94.2885 133.459 105.76V126.52V176.074C140.384 170.965 149.562 167.807 159.583 167.807C168.704 167.807 177.093 170.408 183.736 174.68V147.233C183.736 135.762 194.997 126.473 208.847 126.473H247.92C261.826 126.473 273.086 117.185 273.086 105.713C273.143 94.242 261.882 85 247.976 85Z"
    fill="#1C3F72" />
  <path
    d="M159.639 232.408C149.618 232.408 140.441 229.297 133.516 224.142V267.24C133.516 278.712 144.776 288 158.682 288C172.589 288 183.849 278.712 183.849 267.24V225.535C177.149 229.854 168.76 232.408 159.639 232.408Z"
    fill="#1C3F72" />
  <path
    d="M247 192C261.912 192 274 181.926 274 169.5C274 157.074 261.912 147 247 147C232.088 147 220 157.074 220 169.5C220 181.926 232.088 192 247 192Z"
    fill="#359C47" />
  <path
    d="M247.088 201.617C237.517 201.617 228.734 198.784 221.921 194.047V267.194C221.921 278.665 233.182 287.954 247.088 287.954C260.994 287.954 272.255 278.665 272.255 267.194V194.093C265.386 198.784 256.603 201.617 247.088 201.617Z"
    fill="#359C47" />
  <path
    d="M158.5 222C173.688 222 186 212.15 186 200C186 187.85 173.688 178 158.5 178C143.312 178 131 187.85 131 200C131 212.15 143.312 222 158.5 222Z"
    fill="#1C3F72" />
  <circle cx="187.5" cy="187.5" r="180" stroke="#1C3F72" stroke-width="15" stroke-dasharray="0,0,0,113.516357421875">
  </circle>
</svg>